<svg xmlns="http://www.w3.org/2000/svg" width="106" height="60" fill="none" viewBox="0 0 106 60">
  <path fill="#afb1b8" fill-rule="evenodd" d="M50.114 5.935h-.137c-.21-.013-.42-.018-.63-.023h-.455c-.397 0-.802.01-1.204.03a1 1 0 0 0-.091 0A28.3 28.3 0 0 0 37.08 8.625l-.433.208v22.142l1.012-.344c.888-.305 1.834-.58 2.813-.834a34.3 34.3 0 0 1 8.095-1.075v2.909c-.362.002-.713.012-1.065.03h-.084a32.4 32.4 0 0 0-6.228.956 31.6 31.6 0 0 0-7.42 2.892V7.112a29.7 29.7 0 0 1 7.785-3.166A29.8 29.8 0 0 1 48.892 3h.427c.511.013 1.01.036 1.478.071 1.233.087 2.456.282 3.655.583v2.863a22.6 22.6 0 0 0-3.541-.534l-.073-.006c-.247-.021-.494-.042-.724-.042m5.039 2.926c.635.049 1.293.072 1.958.072a31.5 31.5 0 0 0 7.713-.99A31.8 31.8 0 0 0 72.24 5.05v27.89a29.8 29.8 0 0 1-7.786 3.166 30 30 0 0 1-7.337.944 22.4 22.4 0 0 1-5.565-.656V8.322q.646.151 1.323.267c.739.125 1.518.216 2.277.272m14.194.217-1.012.34q-1.397.469-2.813.842a34.3 34.3 0 0 1-8.406 1.078c-.66 0-1.267-.018-1.854-.056l-.807-.053v22.777l.693.06c.642.057 1.305.085 1.973.085a27 27 0 0 0 6.62-.857 27.8 27.8 0 0 0 5.174-1.86l.432-.208z" clip-rule="evenodd"/>
  <path fill="#afb1b8" d="M35.737 45.212a1.5 1.5 0 0 0-1.126-.455 1.7 1.7 0 0 0-.65.122q-.287.116-.506.333a1.5 1.5 0 0 0-.326.509c-.08.2-.119.413-.116.628v3.794c-.01.267.042.533.149.778.09.195.219.368.38.509.151.127.329.22.52.27q.279.077.567.078c.211.002.42-.043.612-.132a1.6 1.6 0 0 0 .96-1.465v-.424h-.993v.338a.9.9 0 0 1-.058.338.6.6 0 0 1-.144.214.697.697 0 0 1-.415.145.5.5 0 0 1-.465-.204.9.9 0 0 1-.132-.508v-3.538c-.006-.196.036-.39.122-.567a.51.51 0 0 1 .485-.229.53.53 0 0 1 .443.214.8.8 0 0 1 .164.509v.328h.982v-.387a1.8 1.8 0 0 0-.121-.664 1.6 1.6 0 0 0-.332-.534M41.629 45.17a1.77 1.77 0 0 0-1.128-.418c-.202 0-.403.037-.592.107q-.291.105-.524.31a1.6 1.6 0 0 0-.384.532c-.1.231-.15.482-.145.734v3.64c-.007.255.043.51.145.744.09.196.22.37.384.509.152.14.33.25.524.32.19.07.39.106.592.107a1.7 1.7 0 0 0 1.128-.427c.158-.142.285-.315.374-.509.102-.234.151-.489.145-.745v-3.639a1.8 1.8 0 0 0-.145-.734 1.6 1.6 0 0 0-.374-.532m-.463 4.904a.66.66 0 0 1-.197.527.73.73 0 0 1-.934 0 .65.65 0 0 1-.197-.527v-3.639a.65.65 0 0 1 .197-.526.726.726 0 0 1 .934 0 .65.65 0 0 1 .197.526zM49.367 51.7v-6.89h-.953l-1.253 3.647h-.017l-1.263-3.646h-.943v6.888h.984v-4.19h.018l.963 2.962h.491l.971-2.962h.018v4.19zM54.958 45.294c-.151-.17-.343-.3-.556-.377a2.2 2.2 0 0 0-.714-.107h-1.462v6.89h.982v-2.691h.505c.307.014.611-.051.886-.188a1.43 1.43 0 0 0 .539-.527c.113-.183.19-.387.225-.6a5 5 0 0 0 .053-.783c.01-.33-.023-.662-.096-.984a1.47 1.47 0 0 0-.362-.633m-.506 2.1a.9.9 0 0 1-.091.359.55.55 0 0 1-.253.241 1 1 0 0 1-.463.087h-.448v-2.342h.506a.94.94 0 0 1 .443.086.56.56 0 0 1 .23.254c.054.121.083.252.086.384v.458c0 .16.01.326 0 .473zM59.608 44.81h-.805l-1.518 6.89h.982l.288-1.48h1.339l.288 1.48h.981zm-.906 4.471.483-2.497h.018l.48 2.497zM65.95 48.96h-.018l-1.482-4.15h-.944v6.89h.981v-4.143h.02l1.5 4.142h.924v-6.888h-.981zM71.948 44.81l-.79 2.74h-.02l-.79-2.74H69.31l1.348 3.978v2.911h.982v-2.911l1.348-3.977zM33 53.645h.473v1.327h.321v-1.328h.47v-.272H33zM36.977 53.372l-.62 1.6h.341l.132-.364h.638l.136.364h.35l-.636-1.6zm-.05.967.217-.593.217.593zM40.908 54.382h.37v.206a.6.6 0 0 1-.38.135.4.4 0 0 1-.34-.153.67.67 0 0 1-.118-.417q0-.534.46-.534a.34.34 0 0 1 .362.255l.316-.062q-.101-.469-.678-.47a.8.8 0 0 0-.559.206.78.78 0 0 0-.23.615.87.87 0 0 0 .205.6.78.78 0 0 0 .607.235.96.96 0 0 0 .678-.255v-.63h-.693zM44.923 53.372h-.324v1.6h1.12V54.7h-.796zM48.318 53.372h-.324v1.6h.324zM51.637 54.44l-.656-1.068h-.313v1.6h.3v-1.045l.643 1.045h.322v-1.6h-.297zM54.637 54.268h.797v-.273h-.797v-.35h.857v-.273h-1.181v1.6h1.214V54.7h-.89zM61.912 54.003h-.63v-.63h-.32v1.599h.32v-.7h.63v.7h.322v-1.6h-.322zM64.93 54.268h.8v-.273h-.8v-.35h.86v-.273H64.61v1.6h1.212V54.7h-.89zM69.023 54.268q.42-.065.42-.445a.38.38 0 0 0-.157-.356.9.9 0 0 0-.468-.094h-.678v1.599h.322v-.669h.063a.4.4 0 0 1 .2.036q.071.044.114.117l.349.508h.384l-.195-.312a1.1 1.1 0 0 0-.354-.384m-.324-.222h-.237v-.401h.253a.8.8 0 0 1 .326.038.21.21 0 0 1-.015.325.9.9 0 0 1-.327.038M72.11 54.268h.796v-.273h-.796v-.35h.86v-.273h-1.184v1.6H73V54.7h-.89z"/>
</svg>
