<svg xmlns="http://www.w3.org/2000/svg" width="106" height="60" fill="none" viewBox="0 0 106 60">
  <path fill="#afb1b8" fill-rule="evenodd" d="m38 7 7.008 6.634L32 13.626v32.188h34V33.507l7 6.627V7zm27.692 25.728-19.87-18.81h19.87zm-6.169 8.377H37.38V19.459h1.565V39.64h20.578zM42.61 50.1l-.818 1.685-.818-1.685h-.686l1.194 2.246v1.309h.62v-1.309l1.191-2.246zm1.028 3.555.288-.828h1.377l.29.828h.645l-1.345-3.555h-.555l-1.342 3.555zm.976-2.8.515 1.474h-1.03zm3.257 1.389a.8.8 0 0 0-.134.451q0 .45.315.73.317.279.844.279.528 0 .909-.286l.2.237h.688l-.522-.618q.307-.42.307-1.077h-.515q0 .36-.149.652l-.686-.81.242-.176a1.3 1.3 0 0 0 .369-.371.8.8 0 0 0 .112-.41.73.73 0 0 0-.249-.564.9.9 0 0 0-.635-.23q-.43 0-.683.244-.255.242-.254.66 0 .17.08.354.084.183.29.444-.395.283-.529.49m1.604.786a.9.9 0 0 1-.561.2.59.59 0 0 1-.425-.154.53.53 0 0 1-.159-.4q0-.285.293-.508l.076-.054zm-.637-1.575q-.252-.31-.252-.515 0-.178.103-.295a.35.35 0 0 1 .276-.118.37.37 0 0 1 .266.1q.105.099.105.237a.44.44 0 0 1-.151.345l-.076.06zm5.786 1.931q.366-.32.42-.888h-.615q-.05.38-.232.544-.184.165-.547.164-.398 0-.605-.303t-.206-.88v-.314q.006-.569.22-.862.218-.295.62-.295.346 0 .525.17t.225.552h.615q-.06-.584-.417-.903-.36-.32-.948-.32-.437 0-.771.208a1.35 1.35 0 0 0-.51.59 2.1 2.1 0 0 0-.179.887v.332q.008.49.183.862.177.37.498.573.325.2.75.2.608 0 .974-.317m3.63-.498q.18-.396.181-.918v-.197a2.15 2.15 0 0 0-.185-.911 1.36 1.36 0 0 0-.52-.6q-.335-.21-.77-.21-.434 0-.771.212-.334.21-.52.608a2.2 2.2 0 0 0-.183.918v.2q.003.51.185.9.186.391.523.604.339.21.771.21.438 0 .772-.21.336-.213.517-.606m-.661-2.01q.224.316.224.907v.185q0 .6-.222.913-.219.313-.63.313a.74.74 0 0 1-.634-.32q-.227-.32-.227-.906v-.205q.005-.573.229-.886a.73.73 0 0 1 .627-.315q.411 0 .633.315" clip-rule="evenodd"/>
</svg>
