<svg xmlns="http://www.w3.org/2000/svg" width="106" height="60" fill="none" viewBox="0 0 106 60">
  <path fill="#afb1b8" d="M26.757 44.735c.244.276.373.622.367.977a1.4 1.4 0 0 1-.131.676 1.56 1.56 0 0 1-.438.558 2.63 2.63 0 0 1-1.651.45H22v-6.19h2.844a2.6 2.6 0 0 1 1.576.41c.184.142.33.32.425.52.096.202.139.42.127.64.016.34-.1.677-.33.946-.221.246-.526.416-.866.484.385.064.733.252.98.53m-3.406-.934h1.216c.276.018.55-.055.773-.206a.74.74 0 0 0 .207-.275.7.7 0 0 0 .054-.33.7.7 0 0 0-.055-.329.76.76 0 0 0-.203-.276 1.25 1.25 0 0 0-.796-.209H23.35zm2.108 2.374a.8.8 0 0 0 .224-.284.7.7 0 0 0 .063-.345.7.7 0 0 0-.066-.35.8.8 0 0 0-.228-.285 1.34 1.34 0 0 0-.826-.224h-1.275v1.703h1.292c.29.015.578-.06.816-.215M32.57 47.397l-1.581-2.42h-.595v2.42h-1.361v-6.191h2.577a2.7 2.7 0 0 1 1.793.526c.36.336.578.779.613 1.248a1.86 1.86 0 0 1-.421 1.314 2.15 2.15 0 0 1-1.229.629l1.685 2.474zm-2.176-3.264h1.113q1.16 0 1.16-.937a.85.85 0 0 0-.062-.375.9.9 0 0 0-.222-.321 1.28 1.28 0 0 0-.876-.251h-1.126zM40.01 46.15h-2.712l-.479 1.247h-1.427l2.49-6.122h1.544l2.48 6.122H40.48zm-.363-.937-.991-2.613-.991 2.613zM49.322 47.397h-1.35l-3.03-4.21v4.21h-1.348v-6.192h1.348l3.03 4.235v-4.235h1.35zM57.033 45.915c-.28.467-.705.848-1.223 1.092a4.3 4.3 0 0 1-1.9.39h-2.404v-6.191h2.405a4.4 4.4 0 0 1 1.9.38c.517.24.943.616 1.222 1.08.278.504.423 1.06.423 1.625 0 .564-.145 1.12-.423 1.624m-1.546-.148a2.16 2.16 0 0 0 .597-1.478c0-.542-.212-1.066-.597-1.477a2.5 2.5 0 0 0-1.692-.527h-.938v4.008h.938a2.5 2.5 0 0 0 1.692-.526M40.856 6.767s17.438 6.028 17.069 14.751v14.754s-17.426-6.03-17.063-14.754zM73.46 32.818c3.294-2.075 7.103-3.36 11.08-3.738v-4.62c-4.582 1.618-8.47 4.55-11.08 8.358"/>
  <path fill="#afb1b8" d="M71.482 34.21c2.695-4.97 7.368-8.805 13.058-10.717V10.185s-24.835 8.587-24.31 21.009V52.2s1.107-.384 2.848-1.104c0-.671 0-1.349.08-2.03.513-5.766 3.507-11.11 8.324-14.857"/>
  <path fill="#afb1b8" d="M69.12 42.013c.13-1.457.421-2.898.868-4.301-2.998 3.235-4.815 7.25-5.192 11.479-.037.399-.057.798-.067 1.21a75 75 0 0 0 4.777-2.305c-.44-2.001-.57-4.049-.386-6.083M70.108 42.089a19 19 0 0 0 .307 5.508c6.785-3.718 14.41-9.461 14.115-16.403v-.605c-4.848.497-9.383 2.437-12.91 5.523a19.3 19.3 0 0 0-1.513 5.977"/>
</svg>
