<svg xmlns="http://www.w3.org/2000/svg" width="106" height="60" fill="none" viewBox="0 0 106 60">
  <path fill="#afb1b8" d="M36.406 49.101q.024 0 .046.01a.1.1 0 0 1 .039.024l.218.208c-.17.169-.379.304-.614.396a2.4 2.4 0 0 1-.87.142c-.28.005-.558-.04-.817-.133a1.8 1.8 0 0 1-.617-.374 1.7 1.7 0 0 1-.397-.578 1.9 1.9 0 0 1-.14-.742 1.724 1.724 0 0 1 .573-1.322c.186-.163.409-.291.654-.377.269-.09.555-.135.843-.132a2.3 2.3 0 0 1 .782.12q.326.124.587.335l-.183.222a.2.2 0 0 1-.046.04.13.13 0 0 1-.074.017.2.2 0 0 1-.08-.023l-.097-.06-.137-.076a1.6 1.6 0 0 0-.43-.132 2 2 0 0 0-.325-.024 1.8 1.8 0 0 0-.605.1 1.4 1.4 0 0 0-.475.28c-.136.128-.24.28-.308.445a1.5 1.5 0 0 0-.111.587 1.5 1.5 0 0 0 .111.597q.102.248.303.443c.125.12.28.215.453.275.178.064.368.096.561.095q.167.002.333-.019a1.3 1.3 0 0 0 .72-.306.17.17 0 0 1 .103-.038M42.704 48.054a1.8 1.8 0 0 1-.147.737 1.6 1.6 0 0 1-.41.572 1.9 1.9 0 0 1-.645.375 2.66 2.66 0 0 1-1.658 0 1.9 1.9 0 0 1-.64-.377 1.7 1.7 0 0 1-.415-.578 1.92 1.92 0 0 1 0-1.475c.093-.216.234-.413.415-.58.182-.159.4-.282.64-.363a2.6 2.6 0 0 1 1.658 0c.242.085.461.213.643.376.18.165.32.36.412.571.101.238.151.489.147.742m-.572 0a1.6 1.6 0 0 0-.104-.593 1.22 1.22 0 0 0-.752-.722 1.9 1.9 0 0 0-1.205 0 1.3 1.3 0 0 0-.461.28 1.2 1.2 0 0 0-.295.443 1.74 1.74 0 0 0 0 1.184 1.2 1.2 0 0 0 .756.72c.388.127.816.127 1.205 0 .175-.061.332-.156.46-.277.131-.129.23-.28.292-.443.073-.19.108-.391.104-.592M47.001 48.675l.058.132q.03-.07.062-.132a1 1 0 0 1 .071-.13l1.393-2.201c.028-.038.052-.062.08-.069a.4.4 0 0 1 .114-.012h.412v3.58h-.488V47.1a1 1 0 0 1 0-.124L47.3 49.208a.2.2 0 0 1-.082.081.25.25 0 0 1-.12.03h-.079a.24.24 0 0 1-.12-.03.2.2 0 0 1-.081-.081l-1.443-2.246v2.873h-.471v-3.572h.411a.4.4 0 0 1 .115.012q.051.023.076.069l1.423 2.203a1 1 0 0 1 .071.128M52.244 48.497v1.34H51.7v-3.574h1.216q.346-.005.679.078c.176.044.34.12.48.223a.9.9 0 0 1 .272.35c.065.146.096.302.093.458a.993.993 0 0 1-.395.815c-.14.107-.305.188-.483.236a2.3 2.3 0 0 1-.657.083zm0-.384h.66q.216.002.423-.054a.9.9 0 0 0 .305-.154.686.686 0 0 0 .25-.538.6.6 0 0 0-.054-.291.7.7 0 0 0-.19-.244 1.17 1.17 0 0 0-.734-.192h-.66zM59.573 49.842h-.43a.2.2 0 0 1-.12-.033.2.2 0 0 1-.072-.083l-.37-.864h-1.863l-.384.864a.205.205 0 0 1-.19.116h-.432l1.636-3.58h.567zm-2.7-1.329h1.538l-.648-1.457q-.074-.165-.123-.336l-.063.187q-.03.087-.06.152zM61.929 46.28q.049.023.081.063l2.386 2.699v-2.779h.488v3.58h-.272a.3.3 0 0 1-.112-.022.3.3 0 0 1-.088-.066l-2.382-2.696a1 1 0 0 1 0 .123v2.66h-.488v-3.58h.289q.05 0 .098.017M68.903 48.419v1.421h-.545V48.42l-1.508-2.156h.488a.2.2 0 0 1 .117.03q.045.036.074.081l.943 1.391q.057.089.098.166t.069.151l.07-.154q.04-.084.093-.163l.93-1.4a.4.4 0 0 1 .07-.076.18.18 0 0 1 .118-.035h.493zM46.731 40.256q.355.038.72.066c3.679-1.43 6.791-3.77 8.948-6.728s3.261-6.403 3.177-9.904l-4.054-3.522c.824 3.727.438 7.58-1.114 11.128s-4.21 6.65-7.677 8.96"/>
  <path fill="#afb1b8" d="m45.284 40.092.109.02c3.704-2.303 6.527-5.517 8.106-9.228s1.84-7.749.75-11.59l-5.775-5.017c2.335 4.124 3.276 8.74 2.71 13.31-.564 4.57-2.61 8.906-5.9 12.505M64.868 27.827c-.981 3.846-3.364 7.315-6.794 9.892a21.6 21.6 0 0 1-3.229 2.013c2.794-.713 5.361-1.974 7.505-3.686s3.807-3.829 4.86-6.187z"/>
  <path fill="#afb1b8" d="m63.949 27.26-3.334-2.897c-.064 3.303-1.145 6.531-3.13 9.348-1.986 2.818-4.804 5.122-8.16 6.673h.016q1.123-.001 2.238-.116c3.137-1.113 5.909-2.883 8.067-5.153s3.637-4.968 4.303-7.855M45.766 12.16 41.788 8.7c-3.556 1.194-6.614 3.293-8.775 6.022-2.16 2.73-3.322 5.961-3.333 9.274.013 3.66 1.431 7.212 4.03 10.093 2.597 2.88 6.227 4.927 10.314 5.814 3.648-3.862 5.785-8.634 6.098-13.623.313-4.99-1.213-9.935-4.356-14.12M73.14 26.727c-.014-4.342-2.006-8.503-5.54-11.574s-8.324-4.801-13.322-4.814a21.2 21.2 0 0 0-6.753 1.092L71.88 32.594a14.35 14.35 0 0 0 1.26-5.866"/>
</svg>
